<svg preserveAspectRatio="none" width="100%" height="100%" overflow="visible" style="display: block;" viewBox="0 0 40 40" fill="none" xmlns="http://www.w3.org/2000/svg">
<g id="Clipboard">
<path id="Vector" opacity="0.2" d="M32.5 7.5V33.75C32.5 34.0815 32.3683 34.3995 32.1339 34.6339C31.8995 34.8683 31.5815 35 31.25 35H8.75C8.41848 35 8.10054 34.8683 7.86612 34.6339C7.6317 34.3995 7.5 34.0815 7.5 33.75V7.5C7.5 7.16848 7.6317 6.85054 7.86612 6.61612C8.10054 6.3817 8.41848 6.25 8.75 6.25H15C14.1869 7.33095 13.7481 8.64737 13.75 10V11.25H26.25V10C26.2519 8.64737 25.8131 7.33095 25 6.25H31.25C31.5815 6.25 31.8995 6.3817 32.1339 6.61612C32.3683 6.85054 32.5 7.16848 32.5 7.5Z" fill="var(--fill-0, #007660)"/>
<path id="Vector_2" d="M31.25 5H25.5844C24.882 4.21363 24.0215 3.58446 23.0592 3.15368C22.0968 2.7229 21.0544 2.50023 20 2.50023C18.9456 2.50023 17.9032 2.7229 16.9408 3.15368C15.9785 3.58446 15.118 4.21363 14.4156 5H8.75C8.08696 5 7.45107 5.26339 6.98223 5.73223C6.51339 6.20107 6.25 6.83696 6.25 7.5V33.75C6.25 34.413 6.51339 35.0489 6.98223 35.5178C7.45107 35.9866 8.08696 36.25 8.75 36.25H31.25C31.913 36.25 32.5489 35.9866 33.0178 35.5178C33.4866 35.0489 33.75 34.413 33.75 33.75V7.5C33.75 6.83696 33.4866 6.20107 33.0178 5.73223C32.5489 5.26339 31.913 5 31.25 5ZM20 5C21.3261 5 22.5979 5.52678 23.5355 6.46447C24.4732 7.40215 25 8.67392 25 10H15C15 8.67392 15.5268 7.40215 16.4645 6.46447C17.4021 5.52678 18.6739 5 20 5ZM31.25 33.75H8.75V7.5H12.9297C12.6453 8.30284 12.5 9.1483 12.5 10V11.25C12.5 11.5815 12.6317 11.8995 12.8661 12.1339C13.1005 12.3683 13.4185 12.5 13.75 12.5H26.25C26.5815 12.5 26.8995 12.3683 27.1339 12.1339C27.3683 11.8995 27.5 11.5815 27.5 11.25V10C27.5 9.1483 27.3547 8.30284 27.0703 7.5H31.25V33.75Z" fill="var(--fill-0, #007660)"/>
</g>
</svg>
