<svg preserveAspectRatio="none" width="100%" height="100%" overflow="visible" style="display: block;" viewBox="0 0 40 40" fill="none" xmlns="http://www.w3.org/2000/svg">
<g id="DeviceMobileCamera">
<path id="Vector" opacity="0.2" d="M30 6.25V33.75C30 34.413 29.7366 35.0489 29.2678 35.5178C28.7989 35.9866 28.163 36.25 27.5 36.25H12.5C11.837 36.25 11.2011 35.9866 10.7322 35.5178C10.2634 35.0489 10 34.413 10 33.75V6.25C10 5.58696 10.2634 4.95107 10.7322 4.48223C11.2011 4.01339 11.837 3.75 12.5 3.75H27.5C28.163 3.75 28.7989 4.01339 29.2678 4.48223C29.7366 4.95107 30 5.58696 30 6.25Z" fill="var(--fill-0, #007660)"/>
<path id="Vector_2" d="M27.5 2.5H12.5C11.5054 2.5 10.5516 2.89509 9.84835 3.59835C9.14509 4.30161 8.75 5.25544 8.75 6.25V33.75C8.75 34.7446 9.14509 35.6984 9.84835 36.4017C10.5516 37.1049 11.5054 37.5 12.5 37.5H27.5C28.4946 37.5 29.4484 37.1049 30.1517 36.4017C30.8549 35.6984 31.25 34.7446 31.25 33.75V6.25C31.25 5.25544 30.8549 4.30161 30.1517 3.59835C29.4484 2.89509 28.4946 2.5 27.5 2.5ZM28.75 33.75C28.75 34.0815 28.6183 34.3995 28.3839 34.6339C28.1495 34.8683 27.8315 35 27.5 35H12.5C12.1685 35 11.8505 34.8683 11.6161 34.6339C11.3817 34.3995 11.25 34.0815 11.25 33.75V6.25C11.25 5.91848 11.3817 5.60054 11.6161 5.36612C11.8505 5.1317 12.1685 5 12.5 5H27.5C27.8315 5 28.1495 5.1317 28.3839 5.36612C28.6183 5.60054 28.75 5.91848 28.75 6.25V33.75ZM21.875 9.375C21.875 9.74584 21.765 10.1084 21.559 10.4167C21.353 10.725 21.0601 10.9654 20.7175 11.1073C20.3749 11.2492 19.9979 11.2863 19.6342 11.214C19.2705 11.1416 18.9364 10.963 18.6742 10.7008C18.412 10.4386 18.2334 10.1045 18.161 9.74079C18.0887 9.37708 18.1258 9.00008 18.2677 8.65747C18.4096 8.31486 18.65 8.02202 18.9583 7.81599C19.2666 7.60997 19.6292 7.5 20 7.5C20.4973 7.5 20.9742 7.69754 21.3258 8.04917C21.6775 8.40081 21.875 8.87772 21.875 9.375Z" fill="var(--fill-0, #007660)"/>
</g>
</svg>
