<svg preserveAspectRatio="none" width="100%" height="100%" overflow="visible" style="display: block;" viewBox="0 0 40 40" fill="none" xmlns="http://www.w3.org/2000/svg">
<g id="FirstAidKit">
<path id="Vector" opacity="0.2" d="M35 12.5V32.5C35 32.8315 34.8683 33.1495 34.6339 33.3839C34.3995 33.6183 34.0815 33.75 33.75 33.75H6.25C5.91848 33.75 5.60054 33.6183 5.36612 33.3839C5.1317 33.1495 5 32.8315 5 32.5V12.5C5 12.1685 5.1317 11.8505 5.36612 11.6161C5.60054 11.3817 5.91848 11.25 6.25 11.25H33.75C34.0815 11.25 34.3995 11.3817 34.6339 11.6161C34.8683 11.8505 35 12.1685 35 12.5Z" fill="var(--fill-0, #007660)"/>
<path id="Vector_2" d="M33.75 10H27.5V8.75C27.5 7.75544 27.1049 6.80161 26.4017 6.09835C25.6984 5.39509 24.7446 5 23.75 5H16.25C15.2554 5 14.3016 5.39509 13.5983 6.09835C12.8951 6.80161 12.5 7.75544 12.5 8.75V10H6.25C5.58696 10 4.95107 10.2634 4.48223 10.7322C4.01339 11.2011 3.75 11.837 3.75 12.5V32.5C3.75 33.163 4.01339 33.7989 4.48223 34.2678C4.95107 34.7366 5.58696 35 6.25 35H33.75C34.413 35 35.0489 34.7366 35.5178 34.2678C35.9866 33.7989 36.25 33.163 36.25 32.5V12.5C36.25 11.837 35.9866 11.2011 35.5178 10.7322C35.0489 10.2634 34.413 10 33.75 10ZM15 8.75C15 8.41848 15.1317 8.10054 15.3661 7.86612C15.6005 7.6317 15.9185 7.5 16.25 7.5H23.75C24.0815 7.5 24.3995 7.6317 24.6339 7.86612C24.8683 8.10054 25 8.41848 25 8.75V10H15V8.75ZM33.75 32.5H6.25V12.5H33.75V32.5ZM25 22.5C25 22.8315 24.8683 23.1495 24.6339 23.3839C24.3995 23.6183 24.0815 23.75 23.75 23.75H21.25V26.25C21.25 26.5815 21.1183 26.8995 20.8839 27.1339C20.6495 27.3683 20.3315 27.5 20 27.5C19.6685 27.5 19.3505 27.3683 19.1161 27.1339C18.8817 26.8995 18.75 26.5815 18.75 26.25V23.75H16.25C15.9185 23.75 15.6005 23.6183 15.3661 23.3839C15.1317 23.1495 15 22.8315 15 22.5C15 22.1685 15.1317 21.8505 15.3661 21.6161C15.6005 21.3817 15.9185 21.25 16.25 21.25H18.75V18.75C18.75 18.4185 18.8817 18.1005 19.1161 17.8661C19.3505 17.6317 19.6685 17.5 20 17.5C20.3315 17.5 20.6495 17.6317 20.8839 17.8661C21.1183 18.1005 21.25 18.4185 21.25 18.75V21.25H23.75C24.0815 21.25 24.3995 21.3817 24.6339 21.6161C24.8683 21.8505 25 22.1685 25 22.5Z" fill="var(--fill-0, #007660)"/>
</g>
</svg>
