<svg preserveAspectRatio="none" width="100%" height="100%" overflow="visible" style="display: block;" viewBox="0 0 40 40" fill="none" xmlns="http://www.w3.org/2000/svg">
<g id="FirstAid">
<path id="Vector" opacity="0.2" d="M35 16.25V23.75C35 24.0815 34.8683 24.3995 34.6339 24.6339C34.3995 24.8683 34.0815 25 33.75 25H25V33.75C25 34.0815 24.8683 34.3995 24.6339 34.6339C24.3995 34.8683 24.0815 35 23.75 35H16.25C15.9185 35 15.6005 34.8683 15.3661 34.6339C15.1317 34.3995 15 34.0815 15 33.75V25H6.25C5.91848 25 5.60054 24.8683 5.36612 24.6339C5.1317 24.3995 5 24.0815 5 23.75V16.25C5 15.9185 5.1317 15.6005 5.36612 15.3661C5.60054 15.1317 5.91848 15 6.25 15H15V6.25C15 5.91848 15.1317 5.60054 15.3661 5.36612C15.6005 5.1317 15.9185 5 16.25 5H23.75C24.0815 5 24.3995 5.1317 24.6339 5.36612C24.8683 5.60054 25 5.91848 25 6.25V15H33.75C34.0815 15 34.3995 15.1317 34.6339 15.3661C34.8683 15.6005 35 15.9185 35 16.25Z" fill="var(--fill-0, #007660)"/>
<path id="Vector_2" d="M33.75 13.75H26.25V6.25C26.25 5.58696 25.9866 4.95107 25.5178 4.48223C25.0489 4.01339 24.413 3.75 23.75 3.75H16.25C15.587 3.75 14.9511 4.01339 14.4822 4.48223C14.0134 4.95107 13.75 5.58696 13.75 6.25V13.75H6.25C5.58696 13.75 4.95107 14.0134 4.48223 14.4822C4.01339 14.9511 3.75 15.587 3.75 16.25V23.75C3.75 24.413 4.01339 25.0489 4.48223 25.5178C4.95107 25.9866 5.58696 26.25 6.25 26.25H13.75V33.75C13.75 34.413 14.0134 35.0489 14.4822 35.5178C14.9511 35.9866 15.587 36.25 16.25 36.25H23.75C24.413 36.25 25.0489 35.9866 25.5178 35.5178C25.9866 35.0489 26.25 34.413 26.25 33.75V26.25H33.75C34.413 26.25 35.0489 25.9866 35.5178 25.5178C35.9866 25.0489 36.25 24.413 36.25 23.75V16.25C36.25 15.587 35.9866 14.9511 35.5178 14.4822C35.0489 14.0134 34.413 13.75 33.75 13.75ZM33.75 23.75H25C24.6685 23.75 24.3505 23.8817 24.1161 24.1161C23.8817 24.3505 23.75 24.6685 23.75 25V33.75H16.25V25C16.25 24.6685 16.1183 24.3505 15.8839 24.1161C15.6495 23.8817 15.3315 23.75 15 23.75H6.25V16.25H15C15.3315 16.25 15.6495 16.1183 15.8839 15.8839C16.1183 15.6495 16.25 15.3315 16.25 15V6.25H23.75V15C23.75 15.3315 23.8817 15.6495 24.1161 15.8839C24.3505 16.1183 24.6685 16.25 25 16.25H33.75V23.75Z" fill="var(--fill-0, #007660)"/>
</g>
</svg>
