<svg preserveAspectRatio="none" width="100%" height="100%" overflow="visible" style="display: block;" viewBox="0 0 40 40" fill="none" xmlns="http://www.w3.org/2000/svg">
<g id="Heartbeat">
<path id="Vector" opacity="0.2" d="M36.25 14.6875C36.25 25 20 33.75 20 33.75C20 33.75 3.75 25 3.75 14.6875C3.75 12.4497 4.63895 10.3036 6.22129 8.72129C7.80362 7.13895 9.94974 6.25 12.1875 6.25C15.7172 6.25 18.7406 8.17344 20 11.25C21.2594 8.17344 24.2828 6.25 27.8125 6.25C30.0503 6.25 32.1964 7.13895 33.7787 8.72129C35.3611 10.3036 36.25 12.4497 36.25 14.6875Z" fill="var(--fill-0, #007660)"/>
<path id="Vector_2" d="M11.25 21.25H5C4.66848 21.25 4.35054 21.1183 4.11612 20.8839C3.8817 20.6495 3.75 20.3315 3.75 20C3.75 19.6685 3.8817 19.3505 4.11612 19.1161C4.35054 18.8817 4.66848 18.75 5 18.75H10.5813L12.7094 15.5562C12.8235 15.3848 12.9782 15.2442 13.1597 15.1469C13.3413 15.0497 13.544 14.9988 13.75 14.9988C13.956 14.9988 14.1587 15.0497 14.3403 15.1469C14.5218 15.2442 14.6765 15.3848 14.7906 15.5562L18.75 21.4937L20.2094 19.3062C20.3236 19.135 20.4784 18.9946 20.6599 18.8976C20.8415 18.8006 21.0442 18.7499 21.25 18.75H25C25.3315 18.75 25.6495 18.8817 25.8839 19.1161C26.1183 19.3505 26.25 19.6685 26.25 20C26.25 20.3315 26.1183 20.6495 25.8839 20.8839C25.6495 21.1183 25.3315 21.25 25 21.25H21.9187L19.7906 24.4438C19.6765 24.6152 19.5218 24.7558 19.3403 24.8531C19.1587 24.9503 18.956 25.0012 18.75 25.0012C18.544 25.0012 18.3413 24.9503 18.1597 24.8531C17.9782 24.7558 17.8235 24.6152 17.7094 24.4438L13.75 18.5031L12.2906 20.6906C12.1767 20.8624 12.0221 21.0034 11.8406 21.101C11.659 21.1986 11.4561 21.2498 11.25 21.25ZM27.8125 5C24.5859 5 21.7609 6.3875 20 8.73281C18.2391 6.3875 15.4141 5 12.1875 5C9.6191 5.00289 7.15673 6.02447 5.3406 7.8406C3.52447 9.65673 2.50289 12.1191 2.5 14.6875C2.5 14.8047 2.5 14.9219 2.5 15.0391C2.51036 15.3706 2.65199 15.6844 2.89374 15.9115C3.13548 16.1386 3.45754 16.2604 3.78906 16.25C4.12058 16.2396 4.43441 16.098 4.6615 15.8563C4.8886 15.6145 5.01036 15.2925 5 14.9609C5 14.8703 5 14.7781 5 14.6875C5.00248 12.782 5.76053 10.9553 7.10791 9.60791C8.45529 8.26053 10.282 7.50248 12.1875 7.5C15.2266 7.5 17.7781 9.11875 18.8437 11.7188C18.9379 11.948 19.0981 12.1441 19.304 12.2821C19.5099 12.4201 19.7521 12.4938 20 12.4938C20.2479 12.4938 20.4901 12.4201 20.696 12.2821C20.9019 12.1441 21.0621 11.948 21.1562 11.7188C22.2219 9.11406 24.7734 7.5 27.8125 7.5C29.718 7.50248 31.5447 8.26053 32.8921 9.60791C34.2395 10.9553 34.9975 12.782 35 14.6875C35 23.0641 22.85 30.6484 20 32.3125C18.3078 31.3266 13.3391 28.25 9.58125 24.1547C9.35706 23.9102 9.04492 23.7648 8.71351 23.7504C8.3821 23.7361 8.05856 23.8539 7.81406 24.0781C7.56957 24.3023 7.42414 24.6145 7.40978 24.9459C7.39543 25.2773 7.51331 25.6008 7.7375 25.8453C12.6078 31.1578 19.1328 34.7016 19.4078 34.85C19.5898 34.9479 19.7933 34.9992 20 34.9992C20.2067 34.9992 20.4102 34.9479 20.5922 34.85C21.2828 34.4781 37.5 25.625 37.5 14.6875C37.4971 12.1191 36.4755 9.65673 34.6594 7.8406C32.8433 6.02447 30.3809 5.00289 27.8125 5Z" fill="var(--fill-0, #007660)"/>
</g>
</svg>
