<svg preserveAspectRatio="none" width="100%" height="100%" overflow="visible" style="display: block;" viewBox="0 0 32 21" fill="none" xmlns="http://www.w3.org/2000/svg">
<g id="Logo" clip-path="url(#clip0_4891_1814)">
<path id="Vector" d="M30 0.65625C30 1.01869 30.2985 1.3125 30.6667 1.3125H31.3333C31.7015 1.3125 32 1.01869 32 0.65625C32 0.293815 31.7015 1.86502e-06 31.3333 1.86502e-06H30.6667C30.2985 1.86502e-06 30 0.293815 30 0.65625Z" fill="var(--fill-0, #007660)"/>
<path id="Vector_2" d="M10.6667 21H13.9052L12.9624 20.0719C12.7124 19.8258 12.3732 19.6875 12.0196 19.6875H10.6667C5.512 19.6875 1.33333 15.5741 1.33333 10.5C1.33333 5.42587 5.512 1.31251 10.6667 1.3125H21.3333C26.488 1.3125 30.6667 5.42587 30.6667 10.5C30.6667 15.5741 26.488 19.6875 21.3333 19.6875H17.3431C16.8127 19.6875 16.304 19.4801 15.9289 19.1109L14.8244 18.0236C14.1993 17.4082 13.3514 17.0625 12.4673 17.0625H10.6667C6.98475 17.0625 4 14.1244 4 10.5C4 6.87561 6.98475 3.9375 10.6667 3.9375H21.3333C25.0153 3.9375 28 6.87561 28 10.5C28 14.1244 25.0153 17.0625 21.3333 17.0625H18.7713C18.2408 17.0625 17.7321 16.8551 17.357 16.4859L16.2524 15.3986C15.6273 14.7832 14.7795 14.4375 13.8954 14.4375H10.6667C8.45755 14.4375 6.66667 12.6746 6.66667 10.5C6.66667 8.3254 8.45755 6.5625 10.6667 6.5625H21.3333C23.5425 6.5625 25.3333 8.3254 25.3333 10.5C25.3333 12.6481 23.5859 14.3944 21.414 14.4367L21.4135 14.4375H20.4379C19.9075 14.4375 19.3988 14.2301 19.0237 13.8609L17.9191 12.7736C17.4062 12.2686 16.7433 11.9453 16.0335 11.8455L16 11.8125H10.6667C9.93029 11.8125 9.33333 11.2249 9.33333 10.5C9.33333 9.77513 9.93029 9.1875 10.6667 9.1875H21.3333C22.0697 9.1875 22.6667 9.77513 22.6667 10.5C22.6667 11.2249 22.0697 11.8125 21.3333 11.8125H18.6667L19.6095 12.7406C19.8595 12.9867 20.1987 13.125 20.5523 13.125H21.3333C22.8061 13.125 24 11.9497 24 10.5C24 9.05026 22.8061 7.875 21.3333 7.875H10.6667C9.19392 7.875 8 9.05026 8 10.5C8 11.9497 9.19392 13.125 10.6667 13.125H15.5621C16.0925 13.125 16.6012 13.3324 16.9763 13.7016L18.0809 14.7889C18.706 15.4043 19.5539 15.75 20.4379 15.75H21.6667V15.7399C24.4569 15.5706 26.6667 13.2893 26.6667 10.5C26.6667 7.60053 24.2788 5.25 21.3333 5.25H10.6667C7.72117 5.25 5.33333 7.60053 5.33333 10.5C5.33333 13.3995 7.72117 15.75 10.6667 15.75H13.8954C14.4259 15.75 14.9346 15.9574 15.3097 16.3266L16.4142 17.4139C17.0394 18.0293 17.8872 18.375 18.7713 18.375H21.3333C25.7516 18.375 29.3333 14.8493 29.3333 10.5C29.3333 6.15074 25.7516 2.625 21.3333 2.625H10.6667C6.24837 2.625 2.66667 6.15074 2.66667 10.5C2.66667 14.8493 6.24837 18.375 10.6667 18.375H12.4673C12.9978 18.375 13.5065 18.5824 13.8815 18.9516L14.9861 20.0389C15.6113 20.6543 16.4591 21 17.3431 21H21.3333C27.2244 21 32 16.299 32 10.5C32 4.70101 27.2244 -5.06964e-07 21.3333 0L10.6667 2.16964e-06C4.77563 2.6766e-06 -5.15011e-07 4.70101 0 10.5C5.15011e-07 16.299 4.77563 21 10.6667 21Z" fill="var(--fill-0, #007660)"/>
</g>
<defs>
<clipPath id="clip0_4891_1814">
<rect width="32" height="21" fill="white"/>
</clipPath>
</defs>
</svg>
