<svg preserveAspectRatio="none" width="100%" height="100%" overflow="visible" style="display: block;" viewBox="0 0 20 20" fill="none" xmlns="http://www.w3.org/2000/svg">
<g id="Star">
<path id="Vector" opacity="0.2" d="M14.3859 11.539C14.3002 11.6143 14.2365 11.7113 14.2016 11.8198C14.1666 11.9284 14.1618 12.0443 14.1874 12.1554L15.2437 16.7289C15.2716 16.8483 15.2637 16.9733 15.2211 17.0883C15.1784 17.2034 15.1029 17.3033 15.0039 17.3757C14.9048 17.4481 14.7867 17.4897 14.6641 17.4954C14.5416 17.5011 14.4201 17.4706 14.3148 17.4078L10.3226 14.9859C10.2256 14.9269 10.1142 14.8957 10.0007 14.8957C9.88718 14.8957 9.77584 14.9269 9.67883 14.9859L5.68664 17.4078C5.58131 17.4706 5.4598 17.5011 5.33727 17.4954C5.21473 17.4897 5.09659 17.4481 4.99755 17.3757C4.89851 17.3033 4.82297 17.2034 4.78032 17.0883C4.73768 16.9733 4.72983 16.8483 4.75774 16.7289L5.81399 12.1554C5.83966 12.0443 5.83477 11.9284 5.79983 11.8198C5.76489 11.7113 5.70121 11.6143 5.61555 11.539L2.09133 8.46479C1.99711 8.38471 1.92877 8.27849 1.89494 8.15955C1.86111 8.04062 1.86332 7.91432 1.90129 7.79664C1.93926 7.67896 2.01129 7.57519 2.10825 7.49846C2.20522 7.42173 2.32276 7.37548 2.44602 7.36558L7.09133 6.96401C7.20467 6.95392 7.31309 6.91307 7.40492 6.84589C7.49675 6.7787 7.5685 6.68772 7.61243 6.58276L9.42727 2.25776C9.47574 2.14594 9.55585 2.05074 9.65774 1.98386C9.75962 1.91698 9.87883 1.88135 10.0007 1.88135C10.1226 1.88135 10.2418 1.91698 10.3437 1.98386C10.4456 2.05074 10.5257 2.14594 10.5741 2.25776L12.389 6.58276C12.4329 6.68772 12.5047 6.7787 12.5965 6.84589C12.6883 6.91307 12.7967 6.95392 12.9101 6.96401L17.5554 7.36558C17.6787 7.37548 17.7962 7.42173 17.8932 7.49846C17.9901 7.57519 18.0622 7.67896 18.1001 7.79664C18.1381 7.91432 18.1403 8.04062 18.1065 8.15955C18.0727 8.27849 18.0043 8.38471 17.9101 8.46479L14.3859 11.539Z" fill="var(--fill-0, #007660)"/>
<path id="Vector_2" d="M18.6875 7.60078C18.6118 7.36749 18.4692 7.16162 18.2773 7.00881C18.0855 6.856 17.8529 6.76301 17.6086 6.74141L12.9688 6.34141L11.15 2.01641C11.0553 1.78947 10.8956 1.59562 10.691 1.45926C10.4863 1.32291 10.2459 1.25016 10 1.25016C9.7541 1.25016 9.51369 1.32291 9.30905 1.45926C9.10441 1.59562 8.94469 1.78947 8.85 2.01641L7.03672 6.34141L2.39141 6.74375C2.14612 6.76436 1.91238 6.85693 1.7195 7.00986C1.52662 7.16278 1.38318 7.36925 1.30717 7.60337C1.23116 7.83749 1.22596 8.08884 1.29223 8.3259C1.3585 8.56296 1.49329 8.77517 1.67969 8.93594L5.20391 12.0156L4.14766 16.5891C4.0918 16.8284 4.10774 17.0789 4.19347 17.3092C4.27921 17.5395 4.43093 17.7395 4.62968 17.884C4.82843 18.0286 5.06539 18.1113 5.31092 18.122C5.55645 18.1326 5.79966 18.0706 6.01016 17.9437L9.99453 15.5219L13.9875 17.9437C14.198 18.0706 14.4412 18.1326 14.6867 18.122C14.9323 18.1113 15.1692 18.0286 15.368 17.884C15.5667 17.7395 15.7184 17.5395 15.8042 17.3092C15.8899 17.0789 15.9059 16.8284 15.85 16.5891L14.7945 12.0109L18.318 8.93594C18.5043 8.77462 18.6389 8.5618 18.7046 8.32423C18.7704 8.08667 18.7644 7.83497 18.6875 7.60078ZM17.4984 7.99141L13.975 11.0664C13.8035 11.2156 13.6759 11.4087 13.606 11.6249C13.5361 11.8412 13.5264 12.0724 13.5781 12.2937L14.6367 16.875L10.6469 14.4531C10.4522 14.3346 10.2287 14.2719 10.0008 14.2719C9.77287 14.2719 9.54935 14.3346 9.35469 14.4531L5.37031 16.875L6.42188 12.2969C6.47356 12.0755 6.46391 11.8443 6.39398 11.6281C6.32405 11.4118 6.19648 11.2187 6.025 11.0695L2.5 7.99609C2.49971 7.99376 2.49971 7.9914 2.5 7.98906L7.14375 7.5875C7.37047 7.56752 7.58743 7.48601 7.77123 7.35177C7.95503 7.21754 8.09869 7.03567 8.18672 6.82578L10 2.50625L11.8125 6.82578C11.9005 7.03567 12.0442 7.21754 12.228 7.35177C12.4118 7.48601 12.6287 7.56752 12.8555 7.5875L17.5 7.98906C17.5 7.98906 17.5 7.99375 17.5 7.99453L17.4984 7.99141Z" fill="var(--fill-0, #007660)"/>
</g>
</svg>
